<svg width="1024" height="1024" viewBox="0 0 1024 1024" xmlns="http://www.w3.org/2000/svg">
  <defs>
    <!-- Light & Dark Split Backgrounds -->
    <linearGradient id="light_sky" x1="100%" y1="50%" x2="0%" y2="50%">
      <stop offset="0%" stop-color="#e67e22"/>
      <stop offset="40%" stop-color="#f39c12"/>
      <stop offset="70%" stop-color="#f1c40f"/>
      <stop offset="100%" stop-color="#fffae6"/>
    </linearGradient>
    <linearGradient id="dark_sky" x1="0%" y1="50%" x2="100%" y2="50%">
      <stop offset="0%" stop-color="#1e0c2b"/>
      <stop offset="40%" stop-color="#120824"/>
      <stop offset="80%" stop-color="#090414"/>
      <stop offset="100%" stop-color="#04020a"/>
    </linearGradient>

    <!-- Solar Eclipse Corona -->
    <radialGradient id="solar_corona" cx="50%" cy="50%" r="50%">
      <stop offset="0%" stop-color="#ffffff"/>
      <stop offset="40%" stop-color="#ffd166" stop-opacity="0.9"/>
      <stop offset="70%" stop-color="#f39c12" stop-opacity="0.4"/>
      <stop offset="100%" stop-color="#e74c3c" stop-opacity="0.0"/>
    </radialGradient>
    <radialGradient id="lunar_corona" cx="50%" cy="50%" r="50%">
      <stop offset="0%" stop-color="#74b9ff" stop-opacity="0.8"/>
      <stop offset="50%" stop-color="#0984e3" stop-opacity="0.3"/>
      <stop offset="100%" stop-color="#0c2461" stop-opacity="0.0"/>
    </radialGradient>
    <radialGradient id="vignette_split" cx="50%" cy="50%" r="70%">
      <stop offset="60%" stop-color="#000000" stop-opacity="0.0"/>
      <stop offset="100%" stop-color="#06020c" stop-opacity="0.85"/>
    </radialGradient>
  </defs>

  <!-- Left Side: Radiant Golden Light -->
  <rect x="0" y="0" width="512" height="1024" fill="url(#light_sky)"/>
  <!-- Right Side: Deep Cosmic Void -->
  <rect x="512" y="0" width="512" height="1024" fill="url(#dark_sky)"/>

  <!-- Stars on Right Side -->
  <circle cx="637" cy="496" r="2.2" fill="#74b9ff" opacity="0.60"/>
<circle cx="945" cy="384" r="2.4" fill="#74b9ff" opacity="0.42"/>
<circle cx="987" cy="724" r="2.6" fill="#74b9ff" opacity="0.61"/>
<circle cx="968" cy="163" r="3.3" fill="#74b9ff" opacity="0.78"/>
<circle cx="573" cy="41" r="3.1" fill="#74b9ff" opacity="0.72"/>
<circle cx="819" cy="313" r="1.4" fill="#ffffff" opacity="0.77"/>
<circle cx="679" cy="553" r="1.5" fill="#74b9ff" opacity="0.85"/>
<circle cx="820" cy="74" r="2.0" fill="#a29bfe" opacity="0.48"/>
<circle cx="559" cy="599" r="2.5" fill="#a29bfe" opacity="0.55"/>
<circle cx="774" cy="136" r="2.5" fill="#74b9ff" opacity="0.49"/>
<circle cx="651" cy="263" r="2.7" fill="#74b9ff" opacity="0.61"/>
<circle cx="611" cy="531" r="2.9" fill="#a29bfe" opacity="0.69"/>
<circle cx="996" cy="367" r="1.9" fill="#ffffff" opacity="0.94"/>
<circle cx="583" cy="607" r="3.1" fill="#74b9ff" opacity="0.42"/>
<circle cx="820" cy="311" r="2.7" fill="#ffffff" opacity="0.85"/>
<circle cx="877" cy="162" r="3.0" fill="#74b9ff" opacity="0.75"/>
<circle cx="583" cy="709" r="2.7" fill="#74b9ff" opacity="0.85"/>
<circle cx="724" cy="495" r="2.0" fill="#a29bfe" opacity="0.77"/>
<circle cx="801" cy="405" r="2.8" fill="#ffffff" opacity="0.73"/>
<circle cx="832" cy="94" r="3.2" fill="#a29bfe" opacity="0.61"/>
<circle cx="947" cy="562" r="2.8" fill="#74b9ff" opacity="0.48"/>
<circle cx="880" cy="717" r="2.3" fill="#74b9ff" opacity="0.90"/>
<circle cx="526" cy="327" r="2.3" fill="#74b9ff" opacity="0.68"/>
<circle cx="601" cy="181" r="1.9" fill="#74b9ff" opacity="0.91"/>
<circle cx="674" cy="476" r="1.6" fill="#74b9ff" opacity="0.71"/>
<circle cx="811" cy="211" r="1.4" fill="#ffffff" opacity="0.95"/>
<circle cx="693" cy="139" r="2.1" fill="#a29bfe" opacity="0.77"/>
<circle cx="623" cy="668" r="1.5" fill="#a29bfe" opacity="0.88"/>
<circle cx="671" cy="513" r="2.7" fill="#a29bfe" opacity="0.64"/>
<circle cx="899" cy="424" r="1.3" fill="#74b9ff" opacity="0.51"/>
<circle cx="592" cy="209" r="2.2" fill="#74b9ff" opacity="0.81"/>
<circle cx="866" cy="102" r="3.1" fill="#74b9ff" opacity="0.76"/>
<circle cx="648" cy="105" r="2.0" fill="#a29bfe" opacity="0.75"/>
<circle cx="966" cy="569" r="1.3" fill="#ffffff" opacity="0.74"/>
<circle cx="925" cy="135" r="3.3" fill="#a29bfe" opacity="0.50"/>
<circle cx="985" cy="542" r="1.9" fill="#ffffff" opacity="0.56"/>
<circle cx="975" cy="600" r="3.0" fill="#74b9ff" opacity="0.90"/>
<circle cx="647" cy="635" r="2.1" fill="#ffffff" opacity="0.77"/>
<circle cx="538" cy="318" r="2.1" fill="#74b9ff" opacity="0.95"/>
<circle cx="718" cy="338" r="2.2" fill="#ffffff" opacity="0.48"/>
<circle cx="644" cy="695" r="2.4" fill="#74b9ff" opacity="0.49"/>
<circle cx="776" cy="444" r="1.4" fill="#ffffff" opacity="0.66"/>
<circle cx="903" cy="315" r="1.7" fill="#74b9ff" opacity="0.63"/>
<circle cx="916" cy="585" r="2.8" fill="#ffffff" opacity="0.65"/>
<circle cx="783" cy="678" r="1.6" fill="#74b9ff" opacity="0.91"/>
<circle cx="899" cy="443" r="2.0" fill="#74b9ff" opacity="0.83"/>
<circle cx="602" cy="217" r="3.0" fill="#a29bfe" opacity="0.85"/>
<circle cx="952" cy="398" r="2.1" fill="#74b9ff" opacity="0.50"/>
<circle cx="709" cy="662" r="3.1" fill="#74b9ff" opacity="0.47"/>
<circle cx="550" cy="659" r="3.2" fill="#74b9ff" opacity="0.67"/>
<circle cx="881" cy="726" r="3.0" fill="#a29bfe" opacity="0.85"/>
<circle cx="703" cy="422" r="1.7" fill="#ffffff" opacity="0.91"/>
<circle cx="871" cy="184" r="2.8" fill="#ffffff" opacity="0.67"/>
<circle cx="642" cy="110" r="2.9" fill="#74b9ff" opacity="0.72"/>
<circle cx="804" cy="717" r="1.9" fill="#a29bfe" opacity="0.75"/>
<circle cx="783" cy="117" r="1.8" fill="#a29bfe" opacity="0.75"/>
<circle cx="573" cy="352" r="2.8" fill="#a29bfe" opacity="0.45"/>
<circle cx="811" cy="41" r="1.2" fill="#74b9ff" opacity="0.65"/>
<circle cx="843" cy="694" r="1.3" fill="#74b9ff" opacity="0.57"/>
<circle cx="610" cy="158" r="3.1" fill="#74b9ff" opacity="0.77"/>

  <!-- Sunbeams on Left Side -->
  <polygon points="512,440 212.0,919.6 212.0,999.6" fill="#ffd166" opacity="0.12"/>
<polygon points="512,440 87.7,824.3 87.7,904.3" fill="#ffd166" opacity="0.12"/>
<polygon points="512,440 -7.6,700.0 -7.6,780.0" fill="#ffd166" opacity="0.12"/>
<polygon points="512,440 -67.6,555.3 -67.6,635.3" fill="#ffd166" opacity="0.12"/>
<polygon points="512,440 -88.0,400.0 -88.0,480.0" fill="#ffd166" opacity="0.12"/>
<polygon points="512,440 -67.6,244.7 -67.6,324.7" fill="#ffd166" opacity="0.12"/>
<polygon points="512,440 -7.6,100.0 -7.6,180.0" fill="#ffd166" opacity="0.12"/>
<polygon points="512,440 87.7,-24.3 87.7,55.7" fill="#ffd166" opacity="0.12"/>
  <circle cx="288" cy="424" r="1.9" fill="#ffd166" opacity="0.72"/>
<circle cx="244" cy="654" r="3.2" fill="#f39c12" opacity="0.43"/>
<circle cx="431" cy="216" r="1.9" fill="#f39c12" opacity="0.43"/>
<circle cx="46" cy="474" r="3.6" fill="#f39c12" opacity="0.82"/>
<circle cx="85" cy="643" r="2.0" fill="#fff9d2" opacity="0.45"/>
<circle cx="275" cy="681" r="1.7" fill="#f39c12" opacity="0.81"/>
<circle cx="48" cy="608" r="3.6" fill="#f39c12" opacity="0.55"/>
<circle cx="497" cy="165" r="3.1" fill="#ffd166" opacity="0.64"/>
<circle cx="497" cy="381" r="1.7" fill="#ffd166" opacity="0.80"/>
<circle cx="428" cy="119" r="3.3" fill="#ffd166" opacity="0.42"/>
<circle cx="445" cy="405" r="3.3" fill="#ffd166" opacity="0.79"/>
<circle cx="448" cy="587" r="2.8" fill="#ffd166" opacity="0.81"/>
<circle cx="498" cy="96" r="2.8" fill="#f39c12" opacity="0.58"/>
<circle cx="231" cy="448" r="2.8" fill="#ffd166" opacity="0.42"/>
<circle cx="108" cy="106" r="3.5" fill="#fff9d2" opacity="0.84"/>
<circle cx="48" cy="491" r="2.8" fill="#f39c12" opacity="0.71"/>
<circle cx="483" cy="750" r="2.2" fill="#f39c12" opacity="0.38"/>
<circle cx="222" cy="273" r="3.9" fill="#f39c12" opacity="0.52"/>
<circle cx="365" cy="428" r="3.3" fill="#fff9d2" opacity="0.43"/>
<circle cx="231" cy="322" r="2.6" fill="#ffd166" opacity="0.77"/>
<circle cx="402" cy="643" r="2.4" fill="#fff9d2" opacity="0.66"/>
<circle cx="352" cy="709" r="3.3" fill="#ffd166" opacity="0.44"/>
<circle cx="167" cy="459" r="2.4" fill="#ffd166" opacity="0.72"/>
<circle cx="46" cy="396" r="3.8" fill="#ffd166" opacity="0.75"/>
<circle cx="225" cy="719" r="2.1" fill="#ffd166" opacity="0.52"/>
<circle cx="473" cy="115" r="3.9" fill="#f39c12" opacity="0.74"/>
<circle cx="355" cy="338" r="3.2" fill="#fff9d2" opacity="0.74"/>
<circle cx="150" cy="266" r="1.9" fill="#fff9d2" opacity="0.42"/>
<circle cx="453" cy="668" r="3.1" fill="#fff9d2" opacity="0.50"/>
<circle cx="408" cy="302" r="2.0" fill="#ffd166" opacity="0.81"/>
<circle cx="217" cy="640" r="2.2" fill="#ffd166" opacity="0.67"/>
<circle cx="138" cy="199" r="1.9" fill="#ffd166" opacity="0.69"/>
<circle cx="210" cy="332" r="3.8" fill="#f39c12" opacity="0.80"/>
<circle cx="344" cy="583" r="2.4" fill="#fff9d2" opacity="0.74"/>
<circle cx="44" cy="740" r="1.6" fill="#f39c12" opacity="0.77"/>
<circle cx="312" cy="73" r="2.4" fill="#ffd166" opacity="0.71"/>
<circle cx="259" cy="229" r="3.7" fill="#fff9d2" opacity="0.62"/>
<circle cx="359" cy="629" r="2.2" fill="#fff9d2" opacity="0.80"/>
<circle cx="68" cy="385" r="3.7" fill="#f39c12" opacity="0.39"/>
<circle cx="432" cy="441" r="3.5" fill="#fff9d2" opacity="0.65"/>
<circle cx="379" cy="127" r="2.7" fill="#fff9d2" opacity="0.55"/>
<circle cx="260" cy="400" r="1.7" fill="#ffd166" opacity="0.57"/>
<circle cx="430" cy="178" r="3.0" fill="#f39c12" opacity="0.73"/>
<circle cx="177" cy="288" r="2.5" fill="#ffd166" opacity="0.76"/>
<circle cx="301" cy="116" r="3.0" fill="#ffd166" opacity="0.84"/>
<circle cx="400" cy="482" r="3.0" fill="#ffd166" opacity="0.39"/>
<circle cx="442" cy="537" r="2.6" fill="#fff9d2" opacity="0.57"/>
<circle cx="273" cy="367" r="2.7" fill="#f39c12" opacity="0.71"/>
<circle cx="445" cy="741" r="3.7" fill="#ffd166" opacity="0.80"/>
<circle cx="329" cy="293" r="2.8" fill="#ffd166" opacity="0.59"/>
<circle cx="167" cy="571" r="2.3" fill="#fff9d2" opacity="0.55"/>
<circle cx="101" cy="587" r="2.7" fill="#ffd166" opacity="0.70"/>
<circle cx="382" cy="464" r="2.1" fill="#ffd166" opacity="0.84"/>
<circle cx="198" cy="52" r="3.6" fill="#fff9d2" opacity="0.57"/>
<circle cx="230" cy="747" r="3.1" fill="#f39c12" opacity="0.60"/>
<circle cx="253" cy="434" r="2.7" fill="#ffd166" opacity="0.88"/>
<circle cx="66" cy="660" r="3.8" fill="#f39c12" opacity="0.43"/>
<circle cx="293" cy="162" r="3.5" fill="#ffd166" opacity="0.88"/>
<circle cx="245" cy="746" r="1.8" fill="#fff9d2" opacity="0.57"/>
<circle cx="180" cy="460" r="1.7" fill="#fff9d2" opacity="0.82"/>

  <!-- Center Eclipse / Dual Celestial Sphere (512, 440) -->
  <!-- Corona Glow -->
  <circle cx="512" cy="440" r="300" fill="url(#solar_corona)" opacity="0.6"/>
  <circle cx="512" cy="440" r="240" fill="url(#lunar_corona)" opacity="0.7"/>

  <!-- Left Sun half (Golden Fire) -->
  <path d="M 512,250 A 190,190 0 0,0 512,630 Z" fill="#ffd166" stroke="#ffffff" stroke-width="4"/>
  <!-- Right Moon half (Pitch Black with Azure Glow) -->
  <path d="M 512,250 A 190,190 0 0,1 512,630 Z" fill="#0c0717" stroke="#74b9ff" stroke-width="4"/>
  <!-- Blinding White Center Boundary Line -->
  <line x1="512" y1="240" x2="512" y2="640" stroke="#ffffff" stroke-width="6"/>

  <!-- Double Helix Energy Ribbons (Gold & Cyan) Intertwining -->
  <!-- Golden Ribbon from Light to Center -->
  <path d="M 180,780 Q 320,680 440,560 Q 512,480 512,440" stroke="#f1c40f" stroke-width="6" fill="none" opacity="0.85" stroke-linecap="round"/>
  <!-- Cyan Ribbon from Darkness to Center -->
  <path d="M 844,780 Q 704,680 584,560 Q 512,480 512,440" stroke="#00cec9" stroke-width="6" fill="none" opacity="0.85" stroke-linecap="round"/>

  <!-- Jagged Cliff Ledge at Bottom -->
  <polygon points="0,740 380,720 512,710 644,720 1024,740 1024,1024 0,1024" fill="#0f0c18"/>
  <line x1="0" y1="740" x2="512" y2="710" stroke="#f39c12" stroke-width="3"/>
  <line x1="512" y1="710" x2="1024" y2="740" stroke="#74b9ff" stroke-width="3"/>

  <!-- Dual Silhouette Figures Standing Back-to-Back at Center (512, 708) -->
  <!-- Left Figure: Solar Hero (Looking Left) -->
  <g transform="translate(476, 645) scale(0.65)">
    <!-- Head & spiky hair silhouette -->
    <circle cx="0" cy="-60" r="16" fill="#ffd166"/>
    <polygon points="-8,-75 0,-92 10,-72" fill="#ffd166"/>
    <polygon points="-16,-65 -28,-75 -10,-55" fill="#ffd166"/>
    <!-- Cloak & Body -->
    <path d="M -8,-44 L 8,-44 L 14,30 L -25,50 Z" fill="#ffd166"/>
    <rect x="-18" y="45" width="10" height="45" rx="3" fill="#ffd166"/>
    <rect x="-2" y="45" width="10" height="45" rx="3" fill="#ffd166"/>
  </g>

  <!-- Right Figure: Shadow Guardian (Looking Right) -->
  <g transform="translate(548, 645) scale(0.65)">
    <!-- Head & wild fluffy hair silhouette -->
    <circle cx="0" cy="-60" r="16" fill="#74b9ff"/>
    <polygon points="8,-75 0,-92 -10,-72" fill="#74b9ff"/>
    <polygon points="16,-65 28,-75 10,-55" fill="#74b9ff"/>
    <!-- Cloak & Body -->
    <path d="M -8,-44 L 8,-44 L 25,50 L -14,30 Z" fill="#74b9ff"/>
    <rect x="-8" y="45" width="10" height="45" rx="3" fill="#74b9ff"/>
    <rect x="8" y="45" width="10" height="45" rx="3" fill="#74b9ff"/>
  </g>

  <!-- Title Banner -->
  <g id="title_banner">
<rect x="229.1" y="850.2" width="565.8" height="99.6" rx="18" fill="rgba(0,0,0,0.5)" opacity="0.6"/>
<rect x="233.1" y="854.2" width="557.8" height="91.6" rx="14" fill="rgba(14,17,22,0.88)" stroke="#f1c40f" stroke-width="2" stroke-opacity="0.45"/>
<line x1="263.1" y1="862.2" x2="760.9" y2="862.2" stroke="#f1c40f" stroke-width="1" stroke-opacity="0.3"/>
<line x1="263.1" y1="937.8" x2="760.9" y2="937.8" stroke="#f1c40f" stroke-width="1" stroke-opacity="0.3"/>
<polygon points="249.1,900 255.1,894 261.1,900 255.1,906" fill="#f1c40f" opacity="0.7"/>
<polygon points="762.9,900 768.9,894 774.9,900 768.9,906" fill="#f1c40f" opacity="0.7"/>
<g transform="translate(285.1,879.2) scale(0.38)"><path d="M 15,15 L 15,110 M 85,15 L 85,110 M 15,62 L 85,62" fill="none" stroke="rgba(0,0,0,0.9)" stroke-width="13" stroke-linecap="round" stroke-linejoin="round"/></g>
<g transform="translate(332.4,879.2) scale(0.38)"><path d="M 15,15 L 50,62 L 85,15 M 50,62 L 50,110" fill="none" stroke="rgba(0,0,0,0.9)" stroke-width="13" stroke-linecap="round" stroke-linejoin="round"/></g>
<g transform="translate(379.7,879.2) scale(0.38)"><path d="M 50,15 C 15,15 15,110 50,110 C 85,110 85,15 50,15 Z" fill="none" stroke="rgba(0,0,0,0.9)" stroke-width="13" stroke-linecap="round" stroke-linejoin="round"/></g>
<g transform="translate(427.0,879.2) scale(0.38)"><path d="M 15,110 L 15,15 L 55,15 C 80,15 80,62 55,62 L 15,62 M 50,62 L 85,110" fill="none" stroke="rgba(0,0,0,0.9)" stroke-width="13" stroke-linecap="round" stroke-linejoin="round"/></g>
<g transform="translate(474.3,879.2) scale(0.38)"><path d="M 20,15 L 80,15 M 50,15 L 50,110 M 20,110 L 80,110" fill="none" stroke="rgba(0,0,0,0.9)" stroke-width="13" stroke-linecap="round" stroke-linejoin="round"/></g>
<g transform="translate(544.2,879.2) scale(0.38)"><path d="M 20,15 L 80,15 M 50,15 L 50,110 M 20,110 L 80,110" fill="none" stroke="rgba(0,0,0,0.9)" stroke-width="13" stroke-linecap="round" stroke-linejoin="round"/></g>
<g transform="translate(580.1,879.2) scale(0.38)"><path d="M 10,15 L 90,15 M 50,15 L 50,110" fill="none" stroke="rgba(0,0,0,0.9)" stroke-width="13" stroke-linecap="round" stroke-linejoin="round"/></g>
<g transform="translate(627.4,879.2) scale(0.38)"><path d="M 10,15 L 90,15 M 50,15 L 50,110" fill="none" stroke="rgba(0,0,0,0.9)" stroke-width="13" stroke-linecap="round" stroke-linejoin="round"/></g>
<g transform="translate(674.7,879.2) scale(0.38)"><path d="M 10,110 L 50,15 L 90,110 M 26,75 L 74,75" fill="none" stroke="rgba(0,0,0,0.9)" stroke-width="13" stroke-linecap="round" stroke-linejoin="round"/></g>
<g transform="translate(722.0,879.2) scale(0.38)"><path d="M 20,15 L 80,15 M 50,15 L 50,110 M 20,110 L 80,110" fill="none" stroke="rgba(0,0,0,0.9)" stroke-width="13" stroke-linecap="round" stroke-linejoin="round"/></g>
<g transform="translate(283.1,877.2) scale(0.38)"><path d="M 15,15 L 15,110 M 85,15 L 85,110 M 15,62 L 85,62" fill="none" stroke="#fff8e7" stroke-width="9" stroke-linecap="round" stroke-linejoin="round"/></g>
<g transform="translate(330.4,877.2) scale(0.38)"><path d="M 15,15 L 50,62 L 85,15 M 50,62 L 50,110" fill="none" stroke="#fff8e7" stroke-width="9" stroke-linecap="round" stroke-linejoin="round"/></g>
<g transform="translate(377.7,877.2) scale(0.38)"><path d="M 50,15 C 15,15 15,110 50,110 C 85,110 85,15 50,15 Z" fill="none" stroke="#fff8e7" stroke-width="9" stroke-linecap="round" stroke-linejoin="round"/></g>
<g transform="translate(425.0,877.2) scale(0.38)"><path d="M 15,110 L 15,15 L 55,15 C 80,15 80,62 55,62 L 15,62 M 50,62 L 85,110" fill="none" stroke="#fff8e7" stroke-width="9" stroke-linecap="round" stroke-linejoin="round"/></g>
<g transform="translate(472.3,877.2) scale(0.38)"><path d="M 20,15 L 80,15 M 50,15 L 50,110 M 20,110 L 80,110" fill="none" stroke="#fff8e7" stroke-width="9" stroke-linecap="round" stroke-linejoin="round"/></g>
<g transform="translate(542.2,877.2) scale(0.38)"><path d="M 20,15 L 80,15 M 50,15 L 50,110 M 20,110 L 80,110" fill="none" stroke="#fff8e7" stroke-width="9" stroke-linecap="round" stroke-linejoin="round"/></g>
<g transform="translate(578.1,877.2) scale(0.38)"><path d="M 10,15 L 90,15 M 50,15 L 50,110" fill="none" stroke="#fff8e7" stroke-width="9" stroke-linecap="round" stroke-linejoin="round"/></g>
<g transform="translate(625.4,877.2) scale(0.38)"><path d="M 10,15 L 90,15 M 50,15 L 50,110" fill="none" stroke="#fff8e7" stroke-width="9" stroke-linecap="round" stroke-linejoin="round"/></g>
<g transform="translate(672.7,877.2) scale(0.38)"><path d="M 10,110 L 50,15 L 90,110 M 26,75 L 74,75" fill="none" stroke="#fff8e7" stroke-width="9" stroke-linecap="round" stroke-linejoin="round"/></g>
<g transform="translate(720.0,877.2) scale(0.38)"><path d="M 20,15 L 80,15 M 50,15 L 50,110 M 20,110 L 80,110" fill="none" stroke="#fff8e7" stroke-width="9" stroke-linecap="round" stroke-linejoin="round"/></g>
</g>

  <!-- Vignette -->
  <rect width="1024" height="1024" fill="url(#vignette_split)" pointer-events="none"/>
</svg>