<svg width="1024" height="1024" viewBox="0 0 1024 1024" xmlns="http://www.w3.org/2000/svg">
  <defs>
    <linearGradient id="pearl_sky" x1="0%" y1="0%" x2="0%" y2="100%">
      <stop offset="0%" stop-color="#d4e6f9"/>
      <stop offset="40%" stop-color="#edf4fb"/>
      <stop offset="80%" stop-color="#ffffff"/>
      <stop offset="100%" stop-color="#e2ecf5"/>
    </linearGradient>
    <linearGradient id="tower_light" x1="0%" y1="0%" x2="100%" y2="0%">
      <stop offset="0%" stop-color="#ffffff"/>
      <stop offset="50%" stop-color="#e9f1f8"/>
      <stop offset="100%" stop-color="#ccdbe8"/>
    </linearGradient>
    <linearGradient id="tower_shade" x1="0%" y1="0%" x2="100%" y2="0%">
      <stop offset="0%" stop-color="#b4c7d9"/>
      <stop offset="100%" stop-color="#93a8bd"/>
    </linearGradient>
    <linearGradient id="spire_glow" x1="0%" y1="100%" x2="0%" y2="0%">
      <stop offset="0%" stop-color="#ffffff" stop-opacity="0.0"/>
      <stop offset="100%" stop-color="#a6c8ea" stop-opacity="0.7"/>
    </linearGradient>
    <radialGradient id="sun_pearl" cx="50%" cy="25%" r="45%">
      <stop offset="0%" stop-color="#ffffff" stop-opacity="0.95"/>
      <stop offset="50%" stop-color="#e8f3ff" stop-opacity="0.5"/>
      <stop offset="100%" stop-color="#dbe8f6" stop-opacity="0.0"/>
    </radialGradient>
    <radialGradient id="vignette_pearl" cx="50%" cy="50%" r="70%">
      <stop offset="65%" stop-color="#000000" stop-opacity="0.0"/>
      <stop offset="100%" stop-color="#142436" stop-opacity="0.6"/>
    </radialGradient>
  </defs>

  <rect width="1024" height="1024" fill="url(#pearl_sky)"/>
  <circle cx="512" cy="250" r="380" fill="url(#sun_pearl)"/>

  <!-- Distant Background Towers -->
  <polygon points="180,680 230,220 280,220 330,680" fill="#ccdbe8" opacity="0.6"/>
  <polygon points="720,680 770,200 820,200 870,680" fill="#ccdbe8" opacity="0.6"/>
  <polygon points="340,680 380,180 430,180 470,680" fill="#bdcfdf" opacity="0.7"/>
  <polygon points="580,680 620,160 670,160 710,680" fill="#bdcfdf" opacity="0.7"/>

  <!-- Midground Monumental Geometric Blocks -->
  <polygon points="80,740 160,340 260,340 180,740" fill="url(#tower_light)"/>
  <polygon points="260,340 320,380 240,740 180,740" fill="url(#tower_shade)"/>

  <polygon points="780,740 840,320 940,320 880,740" fill="url(#tower_light)"/>
  <polygon points="780,740 840,320 780,360 720,740" fill="url(#tower_shade)"/>

  <!-- Foreground Central Spire (Copied City needle) -->
  <polygon points="460,780 500,80 524,80 564,780" fill="url(#tower_light)"/>
  <polygon points="524,80 540,110 580,780 564,780" fill="url(#tower_shade)"/>
  <line x1="512" y1="80" x2="512" y2="20" stroke="#7ba4d1" stroke-width="4" stroke-linecap="round"/>
  <circle cx="512" cy="20" r="6" fill="#ffffff" stroke="#7ba4d1" stroke-width="2"/>

  <!-- Floating pristine architectural cubes -->
  <g transform="translate(320, 280) rotate(15)">
    <polygon points="0,0 50,-15 100,0 50,15" fill="#ffffff"/>
    <polygon points="0,0 50,15 50,75 0,60" fill="#d2e0ee"/>
    <polygon points="50,15 100,0 100,60 50,75" fill="#a4bcd2"/>
  </g>
  <g transform="translate(640, 240) rotate(-20)">
    <polygon points="0,0 40,-12 80,0 40,12" fill="#ffffff"/>
    <polygon points="0,0 40,12 40,60 0,48" fill="#d2e0ee"/>
    <polygon points="40,12 80,0 80,48 40,60" fill="#a4bcd2"/>
  </g>
  <g transform="translate(220, 460) rotate(25)">
    <polygon points="0,0 35,-10 70,0 35,10" fill="#ffffff"/>
    <polygon points="0,0 35,10 35,50 0,40" fill="#d2e0ee"/>
    <polygon points="35,10 70,0 70,40 35,50" fill="#a4bcd2"/>
  </g>

  <!-- Ground marble terrace grid -->
  <polygon points="0,740 1024,740 1024,1024 0,1024" fill="#d9e6f2"/>
  <polygon points="0,740 512,740 512,1024 0,1024" fill="#edf4fa" opacity="0.6"/>
  <line x1="0" y1="740" x2="1024" y2="740" stroke="#a3bdd6" stroke-width="3"/>
  <line x1="512" y1="740" x2="100" y2="1024" stroke="#a3bdd6" stroke-width="2" opacity="0.6"/>
  <line x1="512" y1="740" x2="924" y2="1024" stroke="#a3bdd6" stroke-width="2" opacity="0.6"/>
  <line x1="512" y1="740" x2="512" y2="1024" stroke="#a3bdd6" stroke-width="2" opacity="0.7"/>

  <!-- Shimmering Crystalline Motifs -->
  <polygon points="862,483.6 869.3,494 862,504.4 854.7,494" fill="#ffffff" stroke="#c0dcf7" stroke-width="1" opacity="0.53"/>
<polygon points="282,289.2 289.5,300 282,310.8 274.5,300" fill="#ffffff" stroke="#c0dcf7" stroke-width="1" opacity="0.79"/>
<polygon points="518,540.5 526.8,553 518,565.5 509.2,553" fill="#ffffff" stroke="#c0dcf7" stroke-width="1" opacity="0.37"/>
<polygon points="620,427.0 624.2,433 620,439.0 615.8,433" fill="#ffffff" stroke="#c0dcf7" stroke-width="1" opacity="0.57"/>
<polygon points="705,629.1 709.1,635 705,640.9 700.9,635" fill="#ffffff" stroke="#c0dcf7" stroke-width="1" opacity="0.53"/>
<polygon points="567,222.7 572.8,231 567,239.3 561.2,231" fill="#ffffff" stroke="#c0dcf7" stroke-width="1" opacity="0.69"/>
<polygon points="928,127.8 934.5,137 928,146.2 921.5,137" fill="#ffffff" stroke="#c0dcf7" stroke-width="1" opacity="0.69"/>
<polygon points="537,569.3 545.9,582 537,594.7 528.1,582" fill="#ffffff" stroke="#c0dcf7" stroke-width="1" opacity="0.57"/>
<polygon points="126,268.3 134.9,281 126,293.7 117.1,281" fill="#ffffff" stroke="#c0dcf7" stroke-width="1" opacity="0.70"/>
<polygon points="119,482.4 123.6,489 119,495.6 114.4,489" fill="#ffffff" stroke="#c0dcf7" stroke-width="1" opacity="0.43"/>
<polygon points="286,219.4 291.3,227 286,234.6 280.7,227" fill="#ffffff" stroke="#c0dcf7" stroke-width="1" opacity="0.75"/>
<polygon points="785,293.6 790.9,302 785,310.4 779.1,302" fill="#ffffff" stroke="#c0dcf7" stroke-width="1" opacity="0.46"/>
<polygon points="745,453.1 749.1,459 745,464.9 740.9,459" fill="#ffffff" stroke="#c0dcf7" stroke-width="1" opacity="0.48"/>
<polygon points="551,334.2 560.6,348 551,361.8 541.4,348" fill="#ffffff" stroke="#c0dcf7" stroke-width="1" opacity="0.70"/>
<polygon points="707,287.1 715.3,299 707,310.9 698.7,299" fill="#ffffff" stroke="#c0dcf7" stroke-width="1" opacity="0.53"/>
<polygon points="860,678.5 865.2,686 860,693.5 854.8,686" fill="#ffffff" stroke="#c0dcf7" stroke-width="1" opacity="0.53"/>
<polygon points="326,656.2 334.9,669 326,681.8 317.1,669" fill="#ffffff" stroke="#c0dcf7" stroke-width="1" opacity="0.75"/>
<polygon points="193,292.1 199.9,302 193,311.9 186.1,302" fill="#ffffff" stroke="#c0dcf7" stroke-width="1" opacity="0.36"/>
<polygon points="761,608.1 766.5,616 761,623.9 755.5,616" fill="#ffffff" stroke="#c0dcf7" stroke-width="1" opacity="0.79"/>
<polygon points="187,380.8 196.2,394 187,407.2 177.8,394" fill="#ffffff" stroke="#c0dcf7" stroke-width="1" opacity="0.43"/>
<polygon points="688,597.4 697.5,611 688,624.6 678.5,611" fill="#ffffff" stroke="#c0dcf7" stroke-width="1" opacity="0.49"/>
<polygon points="749,221.4 755.7,231 749,240.6 742.3,231" fill="#ffffff" stroke="#c0dcf7" stroke-width="1" opacity="0.65"/>
<polygon points="557,227.6 562.9,236 557,244.4 551.1,236" fill="#ffffff" stroke="#c0dcf7" stroke-width="1" opacity="0.74"/>
<polygon points="256,443.7 263.9,455 256,466.3 248.1,455" fill="#ffffff" stroke="#c0dcf7" stroke-width="1" opacity="0.55"/>
<polygon points="845,712.6 848.8,718 845,723.4 841.2,718" fill="#ffffff" stroke="#c0dcf7" stroke-width="1" opacity="0.57"/>
<polygon points="272,665.9 280.4,678 272,690.1 263.6,678" fill="#ffffff" stroke="#c0dcf7" stroke-width="1" opacity="0.64"/>
<polygon points="143,180.0 149.3,189 143,198.0 136.7,189" fill="#ffffff" stroke="#c0dcf7" stroke-width="1" opacity="0.35"/>
<polygon points="279,623.2 286.6,634 279,644.8 271.4,634" fill="#ffffff" stroke="#c0dcf7" stroke-width="1" opacity="0.71"/>
<polygon points="290,513.3 296.1,522 290,530.7 283.9,522" fill="#ffffff" stroke="#c0dcf7" stroke-width="1" opacity="0.37"/>
<polygon points="633,348.4 641.1,360 633,371.6 624.9,360" fill="#ffffff" stroke="#c0dcf7" stroke-width="1" opacity="0.57"/>
<polygon points="884,326.5 892.7,339 884,351.5 875.3,339" fill="#ffffff" stroke="#c0dcf7" stroke-width="1" opacity="0.78"/>
<polygon points="698,271.3 701.3,276 698,280.7 694.7,276" fill="#ffffff" stroke="#c0dcf7" stroke-width="1" opacity="0.55"/>
<polygon points="714,334.2 717.4,339 714,343.8 710.6,339" fill="#ffffff" stroke="#c0dcf7" stroke-width="1" opacity="0.44"/>
<polygon points="123,513.3 132.6,527 123,540.7 113.4,527" fill="#ffffff" stroke="#c0dcf7" stroke-width="1" opacity="0.38"/>
<polygon points="400,607.7 407.2,618 400,628.3 392.8,618" fill="#ffffff" stroke="#c0dcf7" stroke-width="1" opacity="0.79"/>

  <!-- Title Banner -->
  <g id="title_banner">
<rect x="159.9" y="850.2" width="704.2" height="99.6" rx="18" fill="rgba(0,0,0,0.5)" opacity="0.6"/>
<rect x="163.9" y="854.2" width="696.2" height="91.6" rx="14" fill="rgba(14,17,22,0.88)" stroke="#7ba4d1" stroke-width="2" stroke-opacity="0.45"/>
<line x1="193.9" y1="862.2" x2="830.1" y2="862.2" stroke="#7ba4d1" stroke-width="1" stroke-opacity="0.3"/>
<line x1="193.9" y1="937.8" x2="830.1" y2="937.8" stroke="#7ba4d1" stroke-width="1" stroke-opacity="0.3"/>
<polygon points="179.9,900 185.9,894 191.9,900 185.9,906" fill="#7ba4d1" opacity="0.7"/>
<polygon points="832.1,900 838.1,894 844.1,900 838.1,906" fill="#7ba4d1" opacity="0.7"/>
<g transform="translate(215.9,879.2) scale(0.38)"><path d="M 85,35 C 70,12 30,12 20,62 C 10,105 65,118 85,92" fill="none" stroke="rgba(0,0,0,0.9)" stroke-width="13" stroke-linecap="round" stroke-linejoin="round"/></g>
<g transform="translate(262.2,879.2) scale(0.38)"><path d="M 20,15 L 80,15 M 50,15 L 50,110 M 20,110 L 80,110" fill="none" stroke="rgba(0,0,0,0.9)" stroke-width="13" stroke-linecap="round" stroke-linejoin="round"/></g>
<g transform="translate(297.1,879.2) scale(0.38)"><path d="M 10,15 L 90,15 M 50,15 L 50,110" fill="none" stroke="rgba(0,0,0,0.9)" stroke-width="13" stroke-linecap="round" stroke-linejoin="round"/></g>
<g transform="translate(343.4,879.2) scale(0.38)"><path d="M 15,15 L 50,62 L 85,15 M 50,62 L 50,110" fill="none" stroke="rgba(0,0,0,0.9)" stroke-width="13" stroke-linecap="round" stroke-linejoin="round"/></g>
<g transform="translate(422.7,879.2) scale(0.38)"><path d="M 50,15 C 15,15 15,110 50,110 C 85,110 85,15 50,15 Z" fill="none" stroke="rgba(0,0,0,0.9)" stroke-width="13" stroke-linecap="round" stroke-linejoin="round"/></g>
<g transform="translate(469.0,879.2) scale(0.38)"><path d="M 85,15 L 15,15 L 15,110 M 15,62 L 70,62" fill="none" stroke="rgba(0,0,0,0.9)" stroke-width="13" stroke-linecap="round" stroke-linejoin="round"/></g>
<g transform="translate(548.3,879.2) scale(0.38)"><path d="M 15,110 L 15,15 L 55,15 C 80,15 80,65 55,65 L 15,65" fill="none" stroke="rgba(0,0,0,0.9)" stroke-width="13" stroke-linecap="round" stroke-linejoin="round"/></g>
<g transform="translate(594.6,879.2) scale(0.38)"><path d="M 85,15 L 15,15 L 15,110 L 85,110 M 15,62 L 70,62" fill="none" stroke="rgba(0,0,0,0.9)" stroke-width="13" stroke-linecap="round" stroke-linejoin="round"/></g>
<g transform="translate(640.9,879.2) scale(0.38)"><path d="M 10,110 L 50,15 L 90,110 M 26,75 L 74,75" fill="none" stroke="rgba(0,0,0,0.9)" stroke-width="13" stroke-linecap="round" stroke-linejoin="round"/></g>
<g transform="translate(687.2,879.2) scale(0.38)"><path d="M 15,110 L 15,15 L 55,15 C 80,15 80,62 55,62 L 15,62 M 50,62 L 85,110" fill="none" stroke="rgba(0,0,0,0.9)" stroke-width="13" stroke-linecap="round" stroke-linejoin="round"/></g>
<g transform="translate(733.5,879.2) scale(0.38)"><path d="M 15,15 L 15,110 L 85,110" fill="none" stroke="rgba(0,0,0,0.9)" stroke-width="13" stroke-linecap="round" stroke-linejoin="round"/></g>
<g transform="translate(779.8,879.2) scale(0.38)"><path d="M 80,35 C 70,14 30,14 25,40 C 20,60 80,65 80,88 C 80,112 35,115 20,95" fill="none" stroke="rgba(0,0,0,0.9)" stroke-width="13" stroke-linecap="round" stroke-linejoin="round"/></g>
<g transform="translate(213.9,877.2) scale(0.38)"><path d="M 85,35 C 70,12 30,12 20,62 C 10,105 65,118 85,92" fill="none" stroke="#ffffff" stroke-width="9" stroke-linecap="round" stroke-linejoin="round"/></g>
<g transform="translate(260.2,877.2) scale(0.38)"><path d="M 20,15 L 80,15 M 50,15 L 50,110 M 20,110 L 80,110" fill="none" stroke="#ffffff" stroke-width="9" stroke-linecap="round" stroke-linejoin="round"/></g>
<g transform="translate(295.1,877.2) scale(0.38)"><path d="M 10,15 L 90,15 M 50,15 L 50,110" fill="none" stroke="#ffffff" stroke-width="9" stroke-linecap="round" stroke-linejoin="round"/></g>
<g transform="translate(341.4,877.2) scale(0.38)"><path d="M 15,15 L 50,62 L 85,15 M 50,62 L 50,110" fill="none" stroke="#ffffff" stroke-width="9" stroke-linecap="round" stroke-linejoin="round"/></g>
<g transform="translate(420.7,877.2) scale(0.38)"><path d="M 50,15 C 15,15 15,110 50,110 C 85,110 85,15 50,15 Z" fill="none" stroke="#ffffff" stroke-width="9" stroke-linecap="round" stroke-linejoin="round"/></g>
<g transform="translate(467.0,877.2) scale(0.38)"><path d="M 85,15 L 15,15 L 15,110 M 15,62 L 70,62" fill="none" stroke="#ffffff" stroke-width="9" stroke-linecap="round" stroke-linejoin="round"/></g>
<g transform="translate(546.3,877.2) scale(0.38)"><path d="M 15,110 L 15,15 L 55,15 C 80,15 80,65 55,65 L 15,65" fill="none" stroke="#ffffff" stroke-width="9" stroke-linecap="round" stroke-linejoin="round"/></g>
<g transform="translate(592.6,877.2) scale(0.38)"><path d="M 85,15 L 15,15 L 15,110 L 85,110 M 15,62 L 70,62" fill="none" stroke="#ffffff" stroke-width="9" stroke-linecap="round" stroke-linejoin="round"/></g>
<g transform="translate(638.9,877.2) scale(0.38)"><path d="M 10,110 L 50,15 L 90,110 M 26,75 L 74,75" fill="none" stroke="#ffffff" stroke-width="9" stroke-linecap="round" stroke-linejoin="round"/></g>
<g transform="translate(685.2,877.2) scale(0.38)"><path d="M 15,110 L 15,15 L 55,15 C 80,15 80,62 55,62 L 15,62 M 50,62 L 85,110" fill="none" stroke="#ffffff" stroke-width="9" stroke-linecap="round" stroke-linejoin="round"/></g>
<g transform="translate(731.5,877.2) scale(0.38)"><path d="M 15,15 L 15,110 L 85,110" fill="none" stroke="#ffffff" stroke-width="9" stroke-linecap="round" stroke-linejoin="round"/></g>
<g transform="translate(777.8,877.2) scale(0.38)"><path d="M 80,35 C 70,14 30,14 25,40 C 20,60 80,65 80,88 C 80,112 35,115 20,95" fill="none" stroke="#ffffff" stroke-width="9" stroke-linecap="round" stroke-linejoin="round"/></g>
</g>

  <!-- Vignette -->
  <rect width="1024" height="1024" fill="url(#vignette_pearl)" pointer-events="none"/>
</svg>