<svg width="1024" height="1024" viewBox="0 0 1024 1024" xmlns="http://www.w3.org/2000/svg">
  <defs>
    <linearGradient id="twilight_carnival" x1="0%" y1="0%" x2="0%" y2="100%">
      <stop offset="0%" stop-color="#110d24"/>
      <stop offset="40%" stop-color="#24153b"/>
      <stop offset="75%" stop-color="#4a2254"/>
      <stop offset="100%" stop-color="#180e22"/>
    </linearGradient>
    <radialGradient id="carnival_glow" cx="50%" cy="42%" r="45%">
      <stop offset="0%" stop-color="#ffb86c" stop-opacity="0.5"/>
      <stop offset="60%" stop-color="#4a2254" stop-opacity="0.2"/>
      <stop offset="100%" stop-color="#110d24" stop-opacity="0.0"/>
    </radialGradient>
    <radialGradient id="vignette_carnival" cx="50%" cy="50%" r="70%">
      <stop offset="55%" stop-color="#000000" stop-opacity="0.0"/>
      <stop offset="100%" stop-color="#080510" stop-opacity="0.88"/>
    </radialGradient>
  </defs>

  <rect width="1024" height="1024" fill="url(#twilight_carnival)"/>
  <circle cx="512" cy="420" r="380" fill="url(#carnival_glow)"/>

  <!-- Distant Ruined Rollercoaster Track Silhouettes -->
  <path d="M -40,420 Q 180,260 400,380 Q 650,510 900,280 Q 980,210 1064,260" fill="none" stroke="#251636" stroke-width="10"/>
  <path d="M 0,440 L 1024,440" fill="none" stroke="#1c112b" stroke-width="3" stroke-dasharray="8,12"/>

  <!-- Colossal Ruined Ferris Wheel -->
  <circle cx="512" cy="420" r="240" fill="none" stroke="#4a355e" stroke-width="8"/>
  <circle cx="512" cy="420" r="220" fill="none" stroke="#372647" stroke-width="4"/>
  <circle cx="512" cy="420" r="32" fill="#2d1c3a" stroke="#ffd166" stroke-width="4"/>
  <!-- Support A-frame legs -->
  <polygon points="512,420 320,760 360,760 512,440" fill="#2d1c3a"/>
  <polygon points="512,420 704,760 664,760 512,440" fill="#241530"/>
  <line x1="512" y1="420" x2="752.0" y2="420.0" stroke="#3b2d4a" stroke-width="3"/>
<rect x="740.0" y="412.0" width="24" height="20" rx="4" fill="#2d1c3a" stroke="#d68438" stroke-width="2"/>
<line x1="512" y1="420" x2="719.8" y2="540.0" stroke="#3b2d4a" stroke-width="3"/>
<rect x="707.8" y="532.0" width="24" height="20" rx="4" fill="#2d1c3a" stroke="#d68438" stroke-width="2"/>
<line x1="512" y1="420" x2="632.0" y2="627.8" stroke="#3b2d4a" stroke-width="3"/>
<rect x="620.0" y="619.8" width="24" height="20" rx="4" fill="#2d1c3a" stroke="#d68438" stroke-width="2"/>
<line x1="512" y1="420" x2="512.0" y2="660.0" stroke="#3b2d4a" stroke-width="3"/>
<rect x="500.0" y="652.0" width="24" height="20" rx="4" fill="#2d1c3a" stroke="#d68438" stroke-width="2"/>
<line x1="512" y1="420" x2="392.0" y2="627.8" stroke="#3b2d4a" stroke-width="3"/>
<rect x="380.0" y="619.8" width="24" height="20" rx="4" fill="#2d1c3a" stroke="#d68438" stroke-width="2"/>
<line x1="512" y1="420" x2="304.2" y2="540.0" stroke="#3b2d4a" stroke-width="3"/>
<rect x="292.2" y="532.0" width="24" height="20" rx="4" fill="#2d1c3a" stroke="#d68438" stroke-width="2"/>
<line x1="512" y1="420" x2="272.0" y2="420.0" stroke="#3b2d4a" stroke-width="3"/>
<rect x="260.0" y="412.0" width="24" height="20" rx="4" fill="#2d1c3a" stroke="#d68438" stroke-width="2"/>
<line x1="512" y1="420" x2="304.2" y2="300.0" stroke="#3b2d4a" stroke-width="3"/>
<rect x="292.2" y="292.0" width="24" height="20" rx="4" fill="#2d1c3a" stroke="#d68438" stroke-width="2"/>
<line x1="512" y1="420" x2="392.0" y2="212.2" stroke="#3b2d4a" stroke-width="3"/>
<rect x="380.0" y="204.2" width="24" height="20" rx="4" fill="#2d1c3a" stroke="#d68438" stroke-width="2"/>
<line x1="512" y1="420" x2="512.0" y2="180.0" stroke="#3b2d4a" stroke-width="3"/>
<rect x="500.0" y="172.0" width="24" height="20" rx="4" fill="#2d1c3a" stroke="#d68438" stroke-width="2"/>
<line x1="512" y1="420" x2="632.0" y2="212.2" stroke="#3b2d4a" stroke-width="3"/>
<rect x="620.0" y="204.2" width="24" height="20" rx="4" fill="#2d1c3a" stroke="#d68438" stroke-width="2"/>
<line x1="512" y1="420" x2="719.8" y2="300.0" stroke="#3b2d4a" stroke-width="3"/>
<rect x="707.8" y="292.0" width="24" height="20" rx="4" fill="#2d1c3a" stroke="#d68438" stroke-width="2"/>
<circle cx="752.0" cy="420.0" r="5" fill="#ffd166" opacity="0.9"/>
<circle cx="752.0" cy="420.0" r="12" fill="#ffd166" opacity="0.3"/>
<circle cx="719.8" cy="540.0" r="5" fill="#06d6a0" opacity="0.9"/>
<circle cx="719.8" cy="540.0" r="12" fill="#06d6a0" opacity="0.3"/>
<circle cx="632.0" cy="627.8" r="5" fill="#ffd166" opacity="0.9"/>
<circle cx="632.0" cy="627.8" r="12" fill="#ffd166" opacity="0.3"/>
<circle cx="512.0" cy="660.0" r="5" fill="#06d6a0" opacity="0.9"/>
<circle cx="512.0" cy="660.0" r="12" fill="#06d6a0" opacity="0.3"/>
<circle cx="392.0" cy="627.8" r="5" fill="#ffd166" opacity="0.9"/>
<circle cx="392.0" cy="627.8" r="12" fill="#ffd166" opacity="0.3"/>
<circle cx="304.2" cy="540.0" r="5" fill="#06d6a0" opacity="0.9"/>
<circle cx="304.2" cy="540.0" r="12" fill="#06d6a0" opacity="0.3"/>
<circle cx="272.0" cy="420.0" r="5" fill="#ffd166" opacity="0.9"/>
<circle cx="272.0" cy="420.0" r="12" fill="#ffd166" opacity="0.3"/>
<circle cx="304.2" cy="300.0" r="5" fill="#06d6a0" opacity="0.9"/>
<circle cx="304.2" cy="300.0" r="12" fill="#06d6a0" opacity="0.3"/>
<circle cx="392.0" cy="212.2" r="5" fill="#ffd166" opacity="0.9"/>
<circle cx="392.0" cy="212.2" r="12" fill="#ffd166" opacity="0.3"/>
<circle cx="512.0" cy="180.0" r="5" fill="#06d6a0" opacity="0.9"/>
<circle cx="512.0" cy="180.0" r="12" fill="#06d6a0" opacity="0.3"/>
<circle cx="632.0" cy="212.2" r="5" fill="#ffd166" opacity="0.9"/>
<circle cx="632.0" cy="212.2" r="12" fill="#ffd166" opacity="0.3"/>
<circle cx="719.8" cy="300.0" r="5" fill="#06d6a0" opacity="0.9"/>
<circle cx="719.8" cy="300.0" r="12" fill="#06d6a0" opacity="0.3"/>

  <!-- Carnival Pennant String Bunting -->
  <path d="M 60,620 Q 280,680 500,640 Q 720,680 964,610" fill="none" stroke="#5a3d73" stroke-width="2"/>
  <polygon points="120,632 150,670 180,638" fill="#ff7675" opacity="0.85"/>
  <polygon points="220,644 250,682 280,650" fill="#ffd166" opacity="0.85"/>
  <polygon points="320,652 350,688 380,654" fill="#06d6a0" opacity="0.85"/>
  <polygon points="420,652 450,686 480,650" fill="#74b9ff" opacity="0.85"/>
  <polygon points="540,648 570,684 600,652" fill="#ff7675" opacity="0.85"/>
  <polygon points="660,654 690,688 720,656" fill="#ffd166" opacity="0.85"/>
  <polygon points="780,644 810,678 840,640" fill="#06d6a0" opacity="0.85"/>

  <!-- Ruined Carousel Platform & Shattered Wooden Horse Silhouette -->
  <polygon points="0,740 1024,740 1024,1024 0,1024" fill="#180e22"/>
  <line x1="0" y1="740" x2="1024" y2="740" stroke="#4a2e66" stroke-width="4"/>

  <!-- Carousel Horse on Foreground Left -->
  <g transform="translate(240, 710) scale(0.65)">
    <!-- Brass pole -->
    <line x1="0" y1="-180" x2="0" y2="120" stroke="#ffd166" stroke-width="8"/>
    <!-- Horse body -->
    <path d="M -60,0 C -40,-30 20,-30 50,0 C 60,30 30,50 -10,40 C -50,40 -70,20 -60,0 Z" fill="#eed9c4" stroke="#4a2e66" stroke-width="4"/>
    <!-- Horse neck & head -->
    <path d="M 40,-10 C 60,-50 70,-80 50,-100 C 40,-110 20,-100 20,-80 C 10,-50 20,-20 40,-10 Z" fill="#eed9c4" stroke="#4a2e66" stroke-width="4"/>
    <!-- Saddle -->
    <path d="M -15,5 Q 5,20 25,5 Q 15,-10 -15,5 Z" fill="#e84393" stroke="#ffd166" stroke-width="3"/>
    <!-- Overgrown ivy around leg -->
    <path d="M -30,40 Q -10,80 -20,120" stroke="#2ed573" stroke-width="6" fill="none"/>
  </g>

  <!-- Glowing fireflies & drifting confetti -->
  <circle cx="277" cy="700" r="3.0" fill="#ff7675" opacity="0.37"/>
<circle cx="826" cy="507" r="2.9" fill="#06d6a0" opacity="0.78"/>
<circle cx="551" cy="795" r="3.1" fill="#ffd166" opacity="0.61"/>
<circle cx="326" cy="605" r="2.5" fill="#ff7675" opacity="0.63"/>
<circle cx="782" cy="772" r="2.3" fill="#ff7675" opacity="0.47"/>
<circle cx="750" cy="167" r="4.0" fill="#ffb86c" opacity="0.54"/>
<circle cx="119" cy="185" r="2.7" fill="#ffd166" opacity="0.60"/>
<circle cx="893" cy="743" r="2.4" fill="#ffb86c" opacity="0.62"/>
<circle cx="789" cy="375" r="2.0" fill="#06d6a0" opacity="0.68"/>
<circle cx="540" cy="339" r="3.2" fill="#ffb86c" opacity="0.36"/>
<circle cx="747" cy="503" r="3.5" fill="#ff7675" opacity="0.51"/>
<circle cx="159" cy="758" r="1.9" fill="#06d6a0" opacity="0.39"/>
<circle cx="734" cy="733" r="3.9" fill="#06d6a0" opacity="0.45"/>
<circle cx="717" cy="688" r="3.4" fill="#06d6a0" opacity="0.49"/>
<circle cx="627" cy="260" r="3.5" fill="#ff7675" opacity="0.68"/>
<circle cx="540" cy="787" r="2.9" fill="#ffd166" opacity="0.35"/>
<circle cx="315" cy="653" r="2.3" fill="#ff7675" opacity="0.62"/>
<circle cx="156" cy="759" r="3.3" fill="#ffd166" opacity="0.84"/>
<circle cx="385" cy="317" r="2.9" fill="#ffb86c" opacity="0.39"/>
<circle cx="617" cy="376" r="3.7" fill="#ffb86c" opacity="0.72"/>
<circle cx="227" cy="755" r="2.3" fill="#ffd166" opacity="0.83"/>
<circle cx="119" cy="726" r="3.8" fill="#06d6a0" opacity="0.73"/>
<circle cx="220" cy="327" r="2.8" fill="#ffd166" opacity="0.65"/>
<circle cx="943" cy="492" r="1.9" fill="#ffd166" opacity="0.53"/>
<circle cx="510" cy="651" r="2.0" fill="#ffd166" opacity="0.73"/>
<circle cx="752" cy="666" r="3.6" fill="#06d6a0" opacity="0.61"/>
<circle cx="227" cy="356" r="2.8" fill="#ffb86c" opacity="0.74"/>
<circle cx="303" cy="275" r="1.9" fill="#06d6a0" opacity="0.64"/>
<circle cx="803" cy="743" r="2.8" fill="#ffd166" opacity="0.52"/>
<circle cx="299" cy="328" r="3.5" fill="#06d6a0" opacity="0.51"/>
<circle cx="508" cy="704" r="3.5" fill="#06d6a0" opacity="0.82"/>
<circle cx="481" cy="383" r="3.2" fill="#06d6a0" opacity="0.45"/>
<circle cx="341" cy="778" r="2.4" fill="#ffd166" opacity="0.82"/>
<circle cx="811" cy="256" r="3.9" fill="#06d6a0" opacity="0.36"/>
<circle cx="841" cy="353" r="3.4" fill="#ffd166" opacity="0.55"/>
<circle cx="595" cy="120" r="2.7" fill="#06d6a0" opacity="0.52"/>
<circle cx="500" cy="512" r="3.2" fill="#06d6a0" opacity="0.61"/>
<circle cx="121" cy="694" r="2.5" fill="#ff7675" opacity="0.58"/>
<circle cx="184" cy="574" r="3.3" fill="#ffb86c" opacity="0.60"/>
<circle cx="549" cy="530" r="3.9" fill="#ff7675" opacity="0.40"/>
<circle cx="246" cy="292" r="2.6" fill="#ff7675" opacity="0.52"/>
<circle cx="718" cy="390" r="3.7" fill="#ffb86c" opacity="0.44"/>
<circle cx="114" cy="292" r="3.4" fill="#ffd166" opacity="0.52"/>
<circle cx="884" cy="574" r="3.1" fill="#ff7675" opacity="0.72"/>
<circle cx="696" cy="681" r="3.3" fill="#ffd166" opacity="0.57"/>
<circle cx="536" cy="748" r="3.4" fill="#06d6a0" opacity="0.79"/>
<circle cx="271" cy="483" r="2.9" fill="#ffb86c" opacity="0.50"/>
<circle cx="768" cy="154" r="2.9" fill="#ffb86c" opacity="0.35"/>
<circle cx="789" cy="259" r="3.6" fill="#ff7675" opacity="0.60"/>
<circle cx="516" cy="404" r="2.1" fill="#ffd166" opacity="0.76"/>

  <!-- Title Banner -->
  <g id="title_banner">
<rect x="59.9" y="853.2" width="904.2" height="93.6" rx="18" fill="rgba(0,0,0,0.5)" opacity="0.6"/>
<rect x="63.9" y="857.2" width="896.2" height="85.6" rx="14" fill="rgba(14,17,22,0.88)" stroke="#ffb86c" stroke-width="2" stroke-opacity="0.45"/>
<line x1="93.9" y1="865.2" x2="930.1" y2="865.2" stroke="#ffb86c" stroke-width="1" stroke-opacity="0.3"/>
<line x1="93.9" y1="934.8" x2="930.1" y2="934.8" stroke="#ffb86c" stroke-width="1" stroke-opacity="0.3"/>
<polygon points="79.9,900 85.9,894 91.9,900 85.9,906" fill="#ffb86c" opacity="0.7"/>
<polygon points="932.1,900 938.1,894 944.1,900 938.1,906" fill="#ffb86c" opacity="0.7"/>
<g transform="translate(115.9,882.2) scale(0.33)"><path d="M 85,35 C 70,12 30,12 20,62 C 10,105 65,118 85,92" fill="none" stroke="rgba(0,0,0,0.9)" stroke-width="13" stroke-linecap="round" stroke-linejoin="round"/></g>
<g transform="translate(156.9,882.2) scale(0.33)"><path d="M 10,110 L 50,15 L 90,110 M 26,75 L 74,75" fill="none" stroke="rgba(0,0,0,0.9)" stroke-width="13" stroke-linecap="round" stroke-linejoin="round"/></g>
<g transform="translate(198.0,882.2) scale(0.33)"><path d="M 15,110 L 15,15 L 55,15 C 80,15 80,62 55,62 L 15,62 M 50,62 L 85,110" fill="none" stroke="rgba(0,0,0,0.9)" stroke-width="13" stroke-linecap="round" stroke-linejoin="round"/></g>
<g transform="translate(239.0,882.2) scale(0.33)"><path d="M 15,110 L 15,15 L 85,110 L 85,15" fill="none" stroke="rgba(0,0,0,0.9)" stroke-width="13" stroke-linecap="round" stroke-linejoin="round"/></g>
<g transform="translate(280.1,882.2) scale(0.33)"><path d="M 20,15 L 80,15 M 50,15 L 50,110 M 20,110 L 80,110" fill="none" stroke="rgba(0,0,0,0.9)" stroke-width="13" stroke-linecap="round" stroke-linejoin="round"/></g>
<g transform="translate(311.2,882.2) scale(0.33)"><path d="M 10,15 L 50,110 L 90,15" fill="none" stroke="rgba(0,0,0,0.9)" stroke-width="13" stroke-linecap="round" stroke-linejoin="round"/></g>
<g transform="translate(352.3,882.2) scale(0.33)"><path d="M 10,110 L 50,15 L 90,110 M 26,75 L 74,75" fill="none" stroke="rgba(0,0,0,0.9)" stroke-width="13" stroke-linecap="round" stroke-linejoin="round"/></g>
<g transform="translate(393.3,882.2) scale(0.33)"><path d="M 15,15 L 15,110 L 85,110" fill="none" stroke="rgba(0,0,0,0.9)" stroke-width="13" stroke-linecap="round" stroke-linejoin="round"/></g>
<g transform="translate(463.9,882.2) scale(0.33)"><path d="M 50,15 C 15,15 15,110 50,110 C 85,110 85,15 50,15 Z" fill="none" stroke="rgba(0,0,0,0.9)" stroke-width="13" stroke-linecap="round" stroke-linejoin="round"/></g>
<g transform="translate(504.9,882.2) scale(0.33)"><path d="M 85,15 L 15,15 L 15,110 M 15,62 L 70,62" fill="none" stroke="rgba(0,0,0,0.9)" stroke-width="13" stroke-linecap="round" stroke-linejoin="round"/></g>
<g transform="translate(575.5,882.2) scale(0.33)"><path d="M 20,15 L 80,15 M 50,15 L 50,110 M 20,110 L 80,110" fill="none" stroke="rgba(0,0,0,0.9)" stroke-width="13" stroke-linecap="round" stroke-linejoin="round"/></g>
<g transform="translate(606.6,882.2) scale(0.33)"><path d="M 15,15 L 15,110 L 85,110" fill="none" stroke="rgba(0,0,0,0.9)" stroke-width="13" stroke-linecap="round" stroke-linejoin="round"/></g>
<g transform="translate(647.7,882.2) scale(0.33)"><path d="M 15,15 L 15,110 L 85,110" fill="none" stroke="rgba(0,0,0,0.9)" stroke-width="13" stroke-linecap="round" stroke-linejoin="round"/></g>
<g transform="translate(688.7,882.2) scale(0.33)"><path d="M 15,15 L 15,80 C 15,112 85,112 85,80 L 85,15" fill="none" stroke="rgba(0,0,0,0.9)" stroke-width="13" stroke-linecap="round" stroke-linejoin="round"/></g>
<g transform="translate(729.8,882.2) scale(0.33)"><path d="M 80,35 C 70,14 30,14 25,40 C 20,60 80,65 80,88 C 80,112 35,115 20,95" fill="none" stroke="rgba(0,0,0,0.9)" stroke-width="13" stroke-linecap="round" stroke-linejoin="round"/></g>
<g transform="translate(770.8,882.2) scale(0.33)"><path d="M 20,15 L 80,15 M 50,15 L 50,110 M 20,110 L 80,110" fill="none" stroke="rgba(0,0,0,0.9)" stroke-width="13" stroke-linecap="round" stroke-linejoin="round"/></g>
<g transform="translate(802.0,882.2) scale(0.33)"><path d="M 50,15 C 15,15 15,110 50,110 C 85,110 85,15 50,15 Z" fill="none" stroke="rgba(0,0,0,0.9)" stroke-width="13" stroke-linecap="round" stroke-linejoin="round"/></g>
<g transform="translate(843.0,882.2) scale(0.33)"><path d="M 15,110 L 15,15 L 85,110 L 85,15" fill="none" stroke="rgba(0,0,0,0.9)" stroke-width="13" stroke-linecap="round" stroke-linejoin="round"/></g>
<g transform="translate(884.1,882.2) scale(0.33)"><path d="M 80,35 C 70,14 30,14 25,40 C 20,60 80,65 80,88 C 80,112 35,115 20,95" fill="none" stroke="rgba(0,0,0,0.9)" stroke-width="13" stroke-linecap="round" stroke-linejoin="round"/></g>
<g transform="translate(113.9,880.2) scale(0.33)"><path d="M 85,35 C 70,12 30,12 20,62 C 10,105 65,118 85,92" fill="none" stroke="#fff8e7" stroke-width="9" stroke-linecap="round" stroke-linejoin="round"/></g>
<g transform="translate(154.9,880.2) scale(0.33)"><path d="M 10,110 L 50,15 L 90,110 M 26,75 L 74,75" fill="none" stroke="#fff8e7" stroke-width="9" stroke-linecap="round" stroke-linejoin="round"/></g>
<g transform="translate(196.0,880.2) scale(0.33)"><path d="M 15,110 L 15,15 L 55,15 C 80,15 80,62 55,62 L 15,62 M 50,62 L 85,110" fill="none" stroke="#fff8e7" stroke-width="9" stroke-linecap="round" stroke-linejoin="round"/></g>
<g transform="translate(237.0,880.2) scale(0.33)"><path d="M 15,110 L 15,15 L 85,110 L 85,15" fill="none" stroke="#fff8e7" stroke-width="9" stroke-linecap="round" stroke-linejoin="round"/></g>
<g transform="translate(278.1,880.2) scale(0.33)"><path d="M 20,15 L 80,15 M 50,15 L 50,110 M 20,110 L 80,110" fill="none" stroke="#fff8e7" stroke-width="9" stroke-linecap="round" stroke-linejoin="round"/></g>
<g transform="translate(309.2,880.2) scale(0.33)"><path d="M 10,15 L 50,110 L 90,15" fill="none" stroke="#fff8e7" stroke-width="9" stroke-linecap="round" stroke-linejoin="round"/></g>
<g transform="translate(350.3,880.2) scale(0.33)"><path d="M 10,110 L 50,15 L 90,110 M 26,75 L 74,75" fill="none" stroke="#fff8e7" stroke-width="9" stroke-linecap="round" stroke-linejoin="round"/></g>
<g transform="translate(391.3,880.2) scale(0.33)"><path d="M 15,15 L 15,110 L 85,110" fill="none" stroke="#fff8e7" stroke-width="9" stroke-linecap="round" stroke-linejoin="round"/></g>
<g transform="translate(461.9,880.2) scale(0.33)"><path d="M 50,15 C 15,15 15,110 50,110 C 85,110 85,15 50,15 Z" fill="none" stroke="#fff8e7" stroke-width="9" stroke-linecap="round" stroke-linejoin="round"/></g>
<g transform="translate(502.9,880.2) scale(0.33)"><path d="M 85,15 L 15,15 L 15,110 M 15,62 L 70,62" fill="none" stroke="#fff8e7" stroke-width="9" stroke-linecap="round" stroke-linejoin="round"/></g>
<g transform="translate(573.5,880.2) scale(0.33)"><path d="M 20,15 L 80,15 M 50,15 L 50,110 M 20,110 L 80,110" fill="none" stroke="#fff8e7" stroke-width="9" stroke-linecap="round" stroke-linejoin="round"/></g>
<g transform="translate(604.6,880.2) scale(0.33)"><path d="M 15,15 L 15,110 L 85,110" fill="none" stroke="#fff8e7" stroke-width="9" stroke-linecap="round" stroke-linejoin="round"/></g>
<g transform="translate(645.7,880.2) scale(0.33)"><path d="M 15,15 L 15,110 L 85,110" fill="none" stroke="#fff8e7" stroke-width="9" stroke-linecap="round" stroke-linejoin="round"/></g>
<g transform="translate(686.7,880.2) scale(0.33)"><path d="M 15,15 L 15,80 C 15,112 85,112 85,80 L 85,15" fill="none" stroke="#fff8e7" stroke-width="9" stroke-linecap="round" stroke-linejoin="round"/></g>
<g transform="translate(727.8,880.2) scale(0.33)"><path d="M 80,35 C 70,14 30,14 25,40 C 20,60 80,65 80,88 C 80,112 35,115 20,95" fill="none" stroke="#fff8e7" stroke-width="9" stroke-linecap="round" stroke-linejoin="round"/></g>
<g transform="translate(768.8,880.2) scale(0.33)"><path d="M 20,15 L 80,15 M 50,15 L 50,110 M 20,110 L 80,110" fill="none" stroke="#fff8e7" stroke-width="9" stroke-linecap="round" stroke-linejoin="round"/></g>
<g transform="translate(800.0,880.2) scale(0.33)"><path d="M 50,15 C 15,15 15,110 50,110 C 85,110 85,15 50,15 Z" fill="none" stroke="#fff8e7" stroke-width="9" stroke-linecap="round" stroke-linejoin="round"/></g>
<g transform="translate(841.0,880.2) scale(0.33)"><path d="M 15,110 L 15,15 L 85,110 L 85,15" fill="none" stroke="#fff8e7" stroke-width="9" stroke-linecap="round" stroke-linejoin="round"/></g>
<g transform="translate(882.1,880.2) scale(0.33)"><path d="M 80,35 C 70,14 30,14 25,40 C 20,60 80,65 80,88 C 80,112 35,115 20,95" fill="none" stroke="#fff8e7" stroke-width="9" stroke-linecap="round" stroke-linejoin="round"/></g>
</g>

  <!-- Vignette -->
  <rect width="1024" height="1024" fill="url(#vignette_carnival)" pointer-events="none"/>
</svg>