<svg width="1024" height="1024" viewBox="0 0 1024 1024" xmlns="http://www.w3.org/2000/svg">
  <defs>
    <linearGradient id="sky_grad" x1="0%" y1="0%" x2="0%" y2="100%">
      <stop offset="0%" stop-color="#2a332d"/>
      <stop offset="40%" stop-color="#3d493e"/>
      <stop offset="70%" stop-color="#7a7f64"/>
      <stop offset="100%" stop-color="#9a8c6e"/>
    </linearGradient>
    <linearGradient id="sunray_grad" x1="0%" y1="0%" x2="100%" y2="100%">
      <stop offset="0%" stop-color="#fff6cc" stop-opacity="0.9"/>
      <stop offset="60%" stop-color="#ffdc82" stop-opacity="0.3"/>
      <stop offset="100%" stop-color="#e8bf56" stop-opacity="0.0"/>
    </linearGradient>
    <linearGradient id="metal_rust" x1="0%" y1="0%" x2="100%" y2="0%">
      <stop offset="0%" stop-color="#22201d"/>
      <stop offset="40%" stop-color="#4a3b32"/>
      <stop offset="70%" stop-color="#6e4d36"/>
      <stop offset="100%" stop-color="#2b201a"/>
    </linearGradient>
    <linearGradient id="moss_stone" x1="0%" y1="0%" x2="0%" y2="100%">
      <stop offset="0%" stop-color="#323b30"/>
      <stop offset="100%" stop-color="#1e241d"/>
    </linearGradient>
    <radialGradient id="sun_glow" cx="10%" cy="10%" r="50%">
      <stop offset="0%" stop-color="#fff8d4" stop-opacity="0.85"/>
      <stop offset="40%" stop-color="#ffd875" stop-opacity="0.35"/>
      <stop offset="100%" stop-color="#c49b45" stop-opacity="0.0"/>
    </radialGradient>
    <radialGradient id="vignette" cx="50%" cy="50%" r="70%">
      <stop offset="60%" stop-color="#000000" stop-opacity="0.0"/>
      <stop offset="100%" stop-color="#0c0e0c" stop-opacity="0.75"/>
    </radialGradient>
  </defs>

  <rect width="1024" height="1024" fill="url(#sky_grad)"/>
  <circle cx="80" cy="80" r="420" fill="url(#sun_glow)"/>

  <polygon points="120,450 160,280 220,280 250,450" fill="#2b332b" opacity="0.4"/>
  <polygon points="720,520 760,210 820,210 850,520" fill="#242b24" opacity="0.5"/>
  <polygon points="840,480 870,310 910,310 930,480" fill="#1d221d" opacity="0.4"/>

  <path d="M 0,220 L 350,140 L 380,180 L 0,280 Z" fill="url(#metal_rust)"/>
  <path d="M 280,150 L 310,650 L 260,650 L 240,165 Z" fill="#2e2520"/>

  <rect x="420" y="240" width="220" height="520" fill="url(#moss_stone)"/>
  <circle cx="530" cy="380" r="85" fill="#1b1d19" stroke="#7a6245" stroke-width="8"/>
  <circle cx="530" cy="380" r="76" fill="none" stroke="#9e8460" stroke-width="2" stroke-dasharray="6,8"/>
  <line x1="530" y1="380" x2="575" y2="340" stroke="#cbb28d" stroke-width="6" stroke-linecap="round"/>
  <line x1="530" y1="380" x2="510" y2="430" stroke="#8c775a" stroke-width="5" stroke-linecap="round"/>
  <path d="M 440,240 Q 460,350 430,480 Q 450,560 425,680" stroke="#52614a" stroke-width="12" fill="none"/>
  <path d="M 590,320 Q 620,440 600,560 Q 635,620 630,720" stroke="#46543f" stroke-width="14" fill="none"/>
  <path d="M 470,520 C 470,490 510,490 510,520 L 510,610 L 470,610 Z" fill="#121512"/>
  <path d="M 550,520 C 550,490 590,490 590,520 L 590,610 L 550,610 Z" fill="#121512"/>

  <polygon points="0,0 1352.2961568046956,362.34666314352904 1472.2961568046956,422.34666314352904 0,0" fill="url(#sunray_grad)" opacity="0.12"/>
<polygon points="0,0 1268.8309018513098,591.6655664369792 1388.8309018513098,651.6655664369792 0,0" fill="url(#sunray_grad)" opacity="0.18"/>
<polygon points="0,0 1146.8128620045886,803.0070108914645 1266.8128620045886,863.0070108914645 0,0" fill="url(#sunray_grad)" opacity="0.15"/>
<polygon points="0,0 989.9494936611666,989.9494936611665 1109.9494936611666,1049.9494936611663 0,0" fill="url(#sunray_grad)" opacity="0.22"/>
<polygon points="0,0 803.0070108914645,1146.8128620045886 923.0070108914645,1206.8128620045886 0,0" fill="url(#sunray_grad)" opacity="0.14"/>
<polygon points="0,0 591.6655664369792,1268.8309018513098 711.6655664369792,1328.8309018513098 0,0" fill="url(#sunray_grad)" opacity="0.09"/>

  <g transform="translate(180, 780)">
    <circle cx="0" cy="0" r="140" fill="url(#metal_rust)"/>
    <circle cx="0" cy="0" r="70" fill="#181a17"/>
    <circle cx="0" cy="0" r="40" fill="#2d2822"/>
    <rect x="-18" y="-160" width="36" height="32" fill="#523927"/>
    <rect x="-18" y="128" width="36" height="32" fill="#523927"/>
    <rect x="-160" y="-18" width="32" height="36" fill="#523927"/>
    <rect x="128" y="-18" width="32" height="36" fill="#523927"/>
    <rect x="-115" y="-115" width="32" height="32" transform="rotate(45)" fill="#523927"/>
    <rect x="85" y="85" width="32" height="32" transform="rotate(45)" fill="#523927"/>
    <rect x="-115" y="85" width="32" height="32" transform="rotate(-45)" fill="#523927"/>
    <rect x="85" y="-115" width="32" height="32" transform="rotate(-45)" fill="#523927"/>
    <path d="M -80,-100 Q -40,-20 -90,60 Q -60,110 -10,130" stroke="#5a694d" stroke-width="8" fill="none"/>
  </g>

  <polygon points="0,740 1024,700 1024,1024 0,1024" fill="#191c18"/>
  <polygon points="0,780 480,750 620,830 0,910" fill="#222720"/>
  <polygon points="520,770 1024,740 1024,880 460,860" fill="#20241e"/>

  <g transform="translate(680, 770)">
    <path d="M 0,60 Q 15,20 10,-30" stroke="#485c3b" stroke-width="4" fill="none"/>
    <ellipse cx="0" cy="-35" rx="14" ry="32" fill="#ffffff" transform="rotate(-30 0 -35)"/>
    <ellipse cx="18" cy="-35" rx="14" ry="32" fill="#ffffff" transform="rotate(30 18 -35)"/>
    <ellipse cx="9" cy="-45" rx="13" ry="35" fill="#f5f7f0"/>
    <circle cx="9" cy="-32" r="5" fill="#ffeaa7"/>
    <circle cx="9" cy="-32" r="16" fill="#fff9d4" opacity="0.35"/>
  </g>
  <g transform="translate(740, 805) scale(0.8)">
    <path d="M 0,60 Q -10,20 -5,-30" stroke="#485c3b" stroke-width="4" fill="none"/>
    <ellipse cx="-10" cy="-35" rx="14" ry="30" fill="#ffffff" transform="rotate(-25 -10 -35)"/>
    <ellipse cx="8" cy="-35" rx="14" ry="30" fill="#ffffff" transform="rotate(25 8 -35)"/>
    <ellipse cx="0" cy="-45" rx="13" ry="32" fill="#f5f7f0"/>
    <circle cx="0" cy="-32" r="5" fill="#ffeaa7"/>
    <circle cx="0" cy="-32" r="14" fill="#fff9d4" opacity="0.35"/>
  </g>
  <g transform="translate(630, 820) scale(0.9)">
    <path d="M 0,60 Q 20,25 15,-25" stroke="#485c3b" stroke-width="4" fill="none"/>
    <ellipse cx="5" cy="-30" rx="14" ry="30" fill="#ffffff" transform="rotate(-20 5 -30)"/>
    <ellipse cx="22" cy="-30" rx="14" ry="30" fill="#ffffff" transform="rotate(30 22 -30)"/>
    <ellipse cx="14" cy="-40" rx="13" ry="32" fill="#f5f7f0"/>
    <circle cx="14" cy="-28" r="5" fill="#ffeaa7"/>
  </g>

  <circle cx="714" cy="214" r="1.6" fill="#ffeaa7" opacity="0.45"/>
<circle cx="288" cy="242" r="3.7" fill="#ffeaa7" opacity="0.67"/>
<circle cx="618" cy="189" r="3.3" fill="#ffeaa7" opacity="0.32"/>
<circle cx="155" cy="323" r="2.2" fill="#ffeaa7" opacity="0.63"/>
<circle cx="634" cy="303" r="3.6" fill="#ffeaa7" opacity="0.69"/>
<circle cx="489" cy="325" r="2.8" fill="#ffeaa7" opacity="0.45"/>
<circle cx="950" cy="106" r="3.8" fill="#ffeaa7" opacity="0.39"/>
<circle cx="492" cy="448" r="2.3" fill="#ffeaa7" opacity="0.42"/>
<circle cx="841" cy="444" r="1.8" fill="#ffeaa7" opacity="0.51"/>
<circle cx="427" cy="452" r="3.3" fill="#ffeaa7" opacity="0.74"/>
<circle cx="807" cy="570" r="3.1" fill="#ffeaa7" opacity="0.84"/>
<circle cx="447" cy="180" r="3.2" fill="#ffeaa7" opacity="0.76"/>
<circle cx="693" cy="470" r="3.2" fill="#ffeaa7" opacity="0.69"/>
<circle cx="106" cy="777" r="2.2" fill="#ffeaa7" opacity="0.46"/>
<circle cx="141" cy="338" r="4.1" fill="#ffeaa7" opacity="0.51"/>
<circle cx="524" cy="750" r="4.0" fill="#ffeaa7" opacity="0.39"/>
<circle cx="423" cy="314" r="3.5" fill="#ffeaa7" opacity="0.69"/>
<circle cx="759" cy="763" r="1.7" fill="#ffeaa7" opacity="0.65"/>
<circle cx="606" cy="846" r="2.2" fill="#ffeaa7" opacity="0.55"/>
<circle cx="336" cy="755" r="3.6" fill="#ffeaa7" opacity="0.42"/>
<circle cx="392" cy="157" r="2.2" fill="#ffeaa7" opacity="0.32"/>
<circle cx="383" cy="510" r="2.3" fill="#ffeaa7" opacity="0.42"/>
<circle cx="640" cy="835" r="2.4" fill="#ffeaa7" opacity="0.66"/>
<circle cx="465" cy="758" r="2.9" fill="#ffeaa7" opacity="0.45"/>
<circle cx="312" cy="674" r="3.1" fill="#ffeaa7" opacity="0.71"/>
<circle cx="498" cy="697" r="2.7" fill="#ffeaa7" opacity="0.42"/>
<circle cx="201" cy="621" r="3.0" fill="#ffeaa7" opacity="0.72"/>
<circle cx="941" cy="212" r="2.0" fill="#ffeaa7" opacity="0.39"/>
<circle cx="756" cy="532" r="3.3" fill="#ffeaa7" opacity="0.51"/>
<circle cx="670" cy="579" r="3.1" fill="#ffeaa7" opacity="0.83"/>
<circle cx="941" cy="111" r="3.5" fill="#ffeaa7" opacity="0.36"/>
<circle cx="609" cy="373" r="3.8" fill="#ffeaa7" opacity="0.49"/>
<circle cx="360" cy="545" r="2.0" fill="#ffeaa7" opacity="0.30"/>
<circle cx="799" cy="836" r="2.3" fill="#ffeaa7" opacity="0.58"/>
<circle cx="242" cy="619" r="4.2" fill="#ffeaa7" opacity="0.78"/>
<circle cx="365" cy="754" r="3.0" fill="#ffeaa7" opacity="0.41"/>
<circle cx="442" cy="265" r="3.1" fill="#ffeaa7" opacity="0.73"/>
<circle cx="603" cy="100" r="3.3" fill="#ffeaa7" opacity="0.57"/>
<circle cx="174" cy="471" r="4.1" fill="#ffeaa7" opacity="0.76"/>
<circle cx="374" cy="345" r="1.7" fill="#ffeaa7" opacity="0.78"/>
<circle cx="140" cy="187" r="3.7" fill="#ffeaa7" opacity="0.75"/>
<circle cx="838" cy="645" r="3.8" fill="#ffeaa7" opacity="0.37"/>
<circle cx="546" cy="662" r="2.0" fill="#ffeaa7" opacity="0.59"/>
<circle cx="681" cy="533" r="4.4" fill="#ffeaa7" opacity="0.81"/>
<circle cx="833" cy="847" r="3.6" fill="#ffeaa7" opacity="0.69"/>
<circle cx="468" cy="787" r="3.4" fill="#ffeaa7" opacity="0.54"/>
<circle cx="589" cy="562" r="1.9" fill="#ffeaa7" opacity="0.42"/>
<circle cx="406" cy="121" r="3.3" fill="#ffeaa7" opacity="0.43"/>
<circle cx="285" cy="107" r="1.7" fill="#ffeaa7" opacity="0.65"/>
<circle cx="294" cy="169" r="4.2" fill="#ffeaa7" opacity="0.77"/>
<circle cx="132" cy="626" r="2.2" fill="#ffeaa7" opacity="0.67"/>
<circle cx="279" cy="652" r="1.9" fill="#ffeaa7" opacity="0.81"/>
<circle cx="644" cy="690" r="2.9" fill="#ffeaa7" opacity="0.73"/>
<circle cx="886" cy="516" r="2.1" fill="#ffeaa7" opacity="0.35"/>
<circle cx="501" cy="462" r="2.8" fill="#ffeaa7" opacity="0.56"/>
<circle cx="806" cy="155" r="3.5" fill="#ffeaa7" opacity="0.84"/>
<circle cx="160" cy="162" r="2.7" fill="#ffeaa7" opacity="0.49"/>
<circle cx="942" cy="211" r="2.2" fill="#ffeaa7" opacity="0.40"/>
<circle cx="519" cy="243" r="2.8" fill="#ffeaa7" opacity="0.45"/>
<circle cx="315" cy="177" r="2.8" fill="#ffeaa7" opacity="0.77"/>

  <g id="title_banner">
<rect x="176.0" y="847.8" width="672.0" height="104.4" rx="18" fill="rgba(0,0,0,0.5)" opacity="0.6"/>
<rect x="180.0" y="851.8" width="664.0" height="96.4" rx="14" fill="rgba(14,17,22,0.88)" stroke="#d6b268" stroke-width="2" stroke-opacity="0.45"/>
<line x1="210.0" y1="859.8" x2="814.0" y2="859.8" stroke="#d6b268" stroke-width="1" stroke-opacity="0.3"/>
<line x1="210.0" y1="940.2" x2="814.0" y2="940.2" stroke="#d6b268" stroke-width="1" stroke-opacity="0.3"/>
<polygon points="196.0,900 202.0,894 208.0,900 202.0,906" fill="#d6b268" opacity="0.7"/>
<polygon points="816.0,900 822.0,894 828.0,900 822.0,906" fill="#d6b268" opacity="0.7"/>
<g transform="translate(232.0,876.8) scale(0.42)"><path d="M 15,110 L 15,15 L 55,15 C 80,15 80,62 55,62 L 15,62 M 50,62 L 85,110" fill="none" stroke="rgba(0,0,0,0.9)" stroke-width="13" stroke-linecap="round" stroke-linejoin="round"/></g>
<g transform="translate(282.7,876.8) scale(0.42)"><path d="M 10,110 L 50,15 L 90,110 M 26,75 L 74,75" fill="none" stroke="rgba(0,0,0,0.9)" stroke-width="13" stroke-linecap="round" stroke-linejoin="round"/></g>
<g transform="translate(333.4,876.8) scale(0.42)"><path d="M 15,15 L 50,62 L 85,15 M 50,62 L 50,110" fill="none" stroke="rgba(0,0,0,0.9)" stroke-width="13" stroke-linecap="round" stroke-linejoin="round"/></g>
<g transform="translate(384.1,876.8) scale(0.42)"><path d="M 80,35 C 70,14 30,14 25,40 C 20,60 80,65 80,88 C 80,112 35,115 20,95" fill="none" stroke="rgba(0,0,0,0.9)" stroke-width="13" stroke-linecap="round" stroke-linejoin="round"/></g>
<g transform="translate(470.8,876.8) scale(0.42)"><path d="M 50,15 C 15,15 15,110 50,110 C 85,110 85,15 50,15 Z" fill="none" stroke="rgba(0,0,0,0.9)" stroke-width="13" stroke-linecap="round" stroke-linejoin="round"/></g>
<g transform="translate(521.5,876.8) scale(0.42)"><path d="M 85,15 L 15,15 L 15,110 M 15,62 L 70,62" fill="none" stroke="rgba(0,0,0,0.9)" stroke-width="13" stroke-linecap="round" stroke-linejoin="round"/></g>
<g transform="translate(608.2,876.8) scale(0.42)"><path d="M 15,110 L 15,15 L 55,15 C 80,15 80,62 55,62 L 15,62 M 50,62 L 85,110" fill="none" stroke="rgba(0,0,0,0.9)" stroke-width="13" stroke-linecap="round" stroke-linejoin="round"/></g>
<g transform="translate(658.9,876.8) scale(0.42)"><path d="M 15,15 L 15,80 C 15,112 85,112 85,80 L 85,15" fill="none" stroke="rgba(0,0,0,0.9)" stroke-width="13" stroke-linecap="round" stroke-linejoin="round"/></g>
<g transform="translate(709.6,876.8) scale(0.42)"><path d="M 80,35 C 70,14 30,14 25,40 C 20,60 80,65 80,88 C 80,112 35,115 20,95" fill="none" stroke="rgba(0,0,0,0.9)" stroke-width="13" stroke-linecap="round" stroke-linejoin="round"/></g>
<g transform="translate(760.3,876.8) scale(0.42)"><path d="M 10,15 L 90,15 M 50,15 L 50,110" fill="none" stroke="rgba(0,0,0,0.9)" stroke-width="13" stroke-linecap="round" stroke-linejoin="round"/></g>
<g transform="translate(230.0,874.8) scale(0.42)"><path d="M 15,110 L 15,15 L 55,15 C 80,15 80,62 55,62 L 15,62 M 50,62 L 85,110" fill="none" stroke="#fff8e7" stroke-width="9" stroke-linecap="round" stroke-linejoin="round"/></g>
<g transform="translate(280.7,874.8) scale(0.42)"><path d="M 10,110 L 50,15 L 90,110 M 26,75 L 74,75" fill="none" stroke="#fff8e7" stroke-width="9" stroke-linecap="round" stroke-linejoin="round"/></g>
<g transform="translate(331.4,874.8) scale(0.42)"><path d="M 15,15 L 50,62 L 85,15 M 50,62 L 50,110" fill="none" stroke="#fff8e7" stroke-width="9" stroke-linecap="round" stroke-linejoin="round"/></g>
<g transform="translate(382.1,874.8) scale(0.42)"><path d="M 80,35 C 70,14 30,14 25,40 C 20,60 80,65 80,88 C 80,112 35,115 20,95" fill="none" stroke="#fff8e7" stroke-width="9" stroke-linecap="round" stroke-linejoin="round"/></g>
<g transform="translate(468.8,874.8) scale(0.42)"><path d="M 50,15 C 15,15 15,110 50,110 C 85,110 85,15 50,15 Z" fill="none" stroke="#fff8e7" stroke-width="9" stroke-linecap="round" stroke-linejoin="round"/></g>
<g transform="translate(519.5,874.8) scale(0.42)"><path d="M 85,15 L 15,15 L 15,110 M 15,62 L 70,62" fill="none" stroke="#fff8e7" stroke-width="9" stroke-linecap="round" stroke-linejoin="round"/></g>
<g transform="translate(606.2,874.8) scale(0.42)"><path d="M 15,110 L 15,15 L 55,15 C 80,15 80,62 55,62 L 15,62 M 50,62 L 85,110" fill="none" stroke="#fff8e7" stroke-width="9" stroke-linecap="round" stroke-linejoin="round"/></g>
<g transform="translate(656.9,874.8) scale(0.42)"><path d="M 15,15 L 15,80 C 15,112 85,112 85,80 L 85,15" fill="none" stroke="#fff8e7" stroke-width="9" stroke-linecap="round" stroke-linejoin="round"/></g>
<g transform="translate(707.6,874.8) scale(0.42)"><path d="M 80,35 C 70,14 30,14 25,40 C 20,60 80,65 80,88 C 80,112 35,115 20,95" fill="none" stroke="#fff8e7" stroke-width="9" stroke-linecap="round" stroke-linejoin="round"/></g>
<g transform="translate(758.3,874.8) scale(0.42)"><path d="M 10,15 L 90,15 M 50,15 L 50,110" fill="none" stroke="#fff8e7" stroke-width="9" stroke-linecap="round" stroke-linejoin="round"/></g>
</g>

  <rect width="1024" height="1024" fill="url(#vignette)" pointer-events="none"/>
</svg>